<?xml version="1.0" encoding="UTF-8"?><svg id="Layer_1" xmlns="http://www.w3.org/2000/svg" viewBox="0 0 407.47 256.02"><defs><style>.cls-1{fill:#36ad4a;}.cls-2{fill:#0097d6;}.cls-3{fill:#facf0a;}.cls-4{fill:none;}.cls-5{fill:#ed1c24;}</style></defs><polygon class="cls-4" points="0 0 407.47 0 407.47 256.02 0 256.02 0 0 0 0"/><path d="M45.87,129.64l-15.03-11.94c-5.5-4.38-6.57-12.27-2.55-17.93l5.29-8.88c-4.43-4.13-5.56-10.92-2.36-16.34,.61-1.04,1.34-1.95,2.16-2.75l25.62-28.68c2.6-2.9,6.19-4.38,9.8-4.38v-.06h23.6c4.11,0,7.79,1.88,10.21,4.83l.64,.68c2.42-2.95,6.09-4.82,10.2-4.82h31.63c4.32,0,8.16,2.08,10.57,5.29h23.1c2.41-3.26,6.28-5.35,10.59-5.35v-.04h39.65c3.15,0,6.04,1.1,8.31,2.95l4.59,3.15c2.33-4.01,6.67-6.56,11.38-6.55v-.04h47.98c3.32,0,6.35,1.23,8.67,3.25l33.82-2.61c3.64-.27,7.04,.96,9.6,3.17l17.23,12.57c3.26,2.37,5.11,5.97,5.37,9.7h.04s1.66,22.81,1.66,22.81c.29,4.05-1.29,7.8-4,10.41l-.67,.74,8.16,7.19c5.47,4.81,6,13.15,1.19,18.62-1.6,1.81-3.58,3.08-5.71,3.8l-1.02,.44,17.43,21.66c2.46,3.06,3.33,6.88,2.72,10.46h.02s-6.07,34.96-6.07,34.96c-.95,5.57-5.26,9.72-10.49,10.73l-37.88,9.88c-4.55,1.18-9.16-.17-12.34-3.18l-8.53-7.53c-1.75,3.39-4.95,5.99-8.97,6.84-.5,.11-.99,.18-1.49,.23l-30.94,3.41c-3.99,.44-7.77-.95-10.48-3.51l-7.98,3.46c-4.76,2.05-10.06,1.07-13.75-2.08v.02s-.98-.82-.98-.82c-1.86,1.88-4.3,3.22-7.11,3.71-.76,.13-1.52,.2-2.27,.2h0s-22.52,0-22.52,0c-3.6,0-6.87-1.44-9.25-3.78l-19.43,3.09c-7.18,1.14-13.92-3.76-15.06-10.93l-.05-.31h0s-.84-6.21-.84-6.21l-2.45-.06-2.55,8.77c-1.89,6.53-8.4,10.46-14.95,9.29v.05s-12.13-2.17-12.13-2.17l-24.62,2.03c-6.66,.55-12.56-3.94-13.96-10.29l-4.16-14.84-3.18,2.83c-5.44,4.84-13.77,4.36-18.62-1.08-.32-.36-.61-.73-.89-1.11l-.45-.6-7.25,15.41c-2.67,5.66-8.86,8.54-14.72,7.25l-27.12-5.12c-7.15-1.34-11.86-8.22-10.52-15.37,.26-1.37,.72-2.65,1.34-3.81h0s32.78-60.69,32.78-60.69h0Z"/><path class="cls-2" d="M109.94,70.45l-12.63,15.57-14.78-9.5-3.72,4.7,26.44,19.39-12.83,24.18h-31.43l-21.93-17.43,9.5-15.96,18.9,10.67,2.84-4.41-27.71-16.45,26.24-29.37h23.6l17.53,18.6h0Zm165.12,61.17l18.99-1.17,14.69,69.32-31.14,3.43-2.55-71.57h0Z"/><path class="cls-3" d="M113.46,52.53h31.62l-1.47,49.44,12.24-8.81-3.62-35.35h30.06v47.58l-17.53,19.78h-36.91l-14.39-17.62V52.53h0Zm231.26,0l18.11,13.22,1.66,22.81-10.18,11.36,18.11,15.96-21.25,9.2-22.23-18.99,3.33,18.9h-22.52l-5.68-69.32,40.63-3.13h0Zm-15.76,20.27l-.59,13.9,5.97,.78,5.97-8.62-11.36-6.07h0Zm-80.04,58.82l18.11,13.22,1.66,22.81-10.18,11.36,18.11,15.96-21.25,9.2-22.23-18.99,3.33,18.9h-22.52l-5.68-69.32,40.63-3.13h0Zm-15.76,20.27l-.59,13.9,5.97,.78,5.97-8.62-11.36-6.07h0Z"/><path class="cls-5" d="M228.99,52.43l17.23,11.85,1.37,28.98-17.43,16.84-21.64,1.37v13.81h-22.81l3.62-72.84h39.65Zm-16.45,22.32l-.69,11.85,6.46,.88,8.22-9.69-14-3.04h0ZM24.71,196.53l34.95-64.72h20.66l6.85,19.58,12.14-19.68,18.31-.39,20.07,70.4-26.14,2.15-4.99-17.82-5.97-17.23-18.02,16.06-13.81-18.31-16.55,35.15-27.51-5.19h0Z"/><path class="cls-1" d="M253.28,51.94h47.98l-4.01,20.27-23.6,3.62-.29,4.99,20.85,1.57-.98,15.57-18.6,1.66,1.66,5.29,22.62,.2,8.32,19.48h-53.95l-5.29-46.8,5.29-25.85h0Zm-71.42,79.48l30.94,67.46-29.57,4.7-2.35-17.33-23.79-.59-5.38,18.5-28.49-5.09,39.07-65.7,19.58-1.96h0Zm-14.59,25.65l-4.01,9.99,14.98,.39-3.43-10.08-7.54-.29h0Zm194.15-24.87l21.34,26.53-6.07,34.95-38.67,10.08-30.84-27.22,4.6-30.65,23.01-14.59,26.63,.88h0Zm-20.85,24.67l-4.99,11.16,8.62,5.78,9.11-3.33-.49-10.87-12.24-2.74h0Z"/></svg>